<svg class="typst-doc" viewBox="0 0 102.04724409448819 102.04724409448819" width="102.04724409448819pt" height="102.04724409448819pt" xmlns="http://www.w3.org/2000/svg" xmlns:xlink="http://www.w3.org/1999/xlink" xmlns:h5="http://www.w3.org/1999/xhtml">
    <path class="typst-shape" fill="#ffffff" fill-rule="nonzero" d="M 0 0v 102.04724 h 102.04724 v -102.04724 Z "/>
    <g>
        <g class="typst-group" transform="matrix(1 0 0 1 2.8346456692913384 2.8346456692913384)">
            <g>
                <path class="typst-shape" fill="#000000" fill-rule="nonzero" stroke="#ffffff" stroke-width="1" stroke-linecap="butt" stroke-linejoin="miter" stroke-miterlimit="4" transform="matrix(1 0 0 1 35.7167515273431 0.000000000000006294177777402462)" d="M 0 0m 0 1.6419996 c 8.170701 -2.1893327 16.773748 -2.1893327 24.94445 0 l -5.135622 19.1664 c -4.8062954 -1.2878418 -9.866912 -1.2878418 -14.673206 0 l -5.135622 -19.1664 Z "/>
                <path class="typst-shape" fill="none" transform="matrix(1 0 0 1 43.267976377952756 3.9712598425196814)" d="M 0 0h 9.842 v 11.9 h -9.842 v -11.9 Z "/>
                <g class="typst-group">
                    <g>
                        <g class="typst-group" transform="matrix(1 0 0 1 43.26797636220472 3.971259779527555)">
                            <g>
                                <g class="typst-group">
                                    <g>
                                        <path class="typst-shape" fill="none" d="M 0 0h 9.842 v 11.9 h -9.842 v -11.9 Z "/>
                                        <g class="typst-group">
                                            <g>
                                                <g class="typst-group" transform="matrix(1 0 0 1 -0.000000015748031456303034 -0.00000006299212672038408)">
                                                    <g>
                                                        <g class="typst-text" transform="matrix(1 0 0 -1 0 11.76)">
                                                            <use xlink:href="#gBF90925A679915BCE972B3DE4230CF63" x="0" y="0" fill="#ffffff" fill-rule="nonzero"/>
                                                        </g>
                                                    </g>
                                                </g>
                                            </g>
                                        </g>
                                    </g>
                                </g>
                            </g>
                        </g>
                    </g>
                </g>
                <path class="typst-shape" fill="#000000" fill-rule="nonzero" stroke="#ffffff" stroke-width="1" stroke-linecap="butt" stroke-linejoin="miter" stroke-miterlimit="4" transform="matrix(1 0 0 1 55.525579231252564 1.6419995520543451)" d="M 0 0m 5.135622 0 c 8.170701 2.1893327 15.621159 6.4908566 21.602528 12.472225 l -14.030781 14.030781 c -3.5184517 -3.5184536 -7.901074 -6.0487614 -12.707369 -7.336603 l 5.135622 -19.166403 Z "/>
                <path class="typst-shape" fill="none" transform="matrix(1 0 0 1 59.77089038666853 7.2528105609284825)" d="M 0 0m 5.95 0 l 9.153889 5.285 l -5.95 10.305702 l -9.153889 -5.285 l 5.95 -10.305702 Z "/>
                <g class="typst-group">
                    <g>
                        <g class="typst-group" transform="matrix(0.8660254037844387 0.49999999999999983 -0.49999999999999983 0.8660254037844387 65.72089030905904 7.252810443383572)">
                            <g>
                                <g class="typst-group">
                                    <g>
                                        <path class="typst-shape" fill="none" d="M 0 0h 10.57 v 11.9 h -10.57 v -11.9 Z "/>
                                        <g class="typst-group">
                                            <g>
                                                <g class="typst-group" transform="matrix(1 0 0 1 -0.00000012598425165042427 -0.00000006299212672038408)">
                                                    <g>
                                                        <g class="typst-text" transform="matrix(1 0 0 -1 0 11.76)">
                                                            <use xlink:href="#g9DBEDAE82679669F929400B990C00743" x="0" y="0" fill="#ffffff" fill-rule="nonzero"/>
                                                        </g>
                                                    </g>
                                                </g>
                                            </g>
                                        </g>
                                    </g>
                                </g>
                            </g>
                        </g>
                    </g>
                </g>
                <path class="typst-shape" fill="#000000" fill-rule="nonzero" stroke="#ffffff" stroke-width="1" stroke-linecap="butt" stroke-linejoin="miter" stroke-miterlimit="4" transform="matrix(1 0 0 1 68.23294812812262 14.11422440266401)" d="M 0 0m 14.03078 0 c 5.981368 5.981368 10.282893 13.431827 12.472226 21.602528 l -19.166403 5.135622 c -1.2878428 -4.8062954 -3.8181508 -9.188917 -7.3366027 -12.70737 l 14.03078 -14.03078 Z "/>
                <path class="typst-shape" fill="none" transform="matrix(1 0 0 1 73.74093988994221 21.860842342998428)" d="M 0 0m 10.305702 0 l 4.8719997 8.438552 l -10.305702 5.95 l -4.872 -8.438552 l 10.305702 -5.95 Z "/>
                <g class="typst-group">
                    <g>
                        <g class="typst-group" transform="matrix(0.5000000000000001 0.8660254037844386 -0.8660254037844386 0.5000000000000001 84.04664222590776 21.860842270587785)">
                            <g>
                                <g class="typst-group">
                                    <g>
                                        <path class="typst-shape" fill="none" d="M 0 0h 9.744 v 11.9 h -9.744 v -11.9 Z "/>
                                        <g class="typst-group">
                                            <g>
                                                <g class="typst-group" transform="matrix(1 0 0 1 -0.000000047244095264081053 -0.00000006299212672038408)">
                                                    <g>
                                                        <g class="typst-text" transform="matrix(1 0 0 -1 0 11.76)">
                                                            <use xlink:href="#g112710620D1B6DC0887308515FB9EFA6" x="0" y="0" fill="#ffffff" fill-rule="nonzero"/>
                                                        </g>
                                                    </g>
                                                </g>
                                            </g>
                                        </g>
                                    </g>
                                </g>
                            </g>
                        </g>
                    </g>
                </g>
                <path class="typst-shape" fill="#000000" fill-rule="nonzero" stroke="#ffffff" stroke-width="1" stroke-linecap="butt" stroke-linejoin="miter" stroke-miterlimit="4" transform="matrix(1 0 0 1 75.56955098142241 35.71675152734309)" d="M 0 0m 19.166403 0 c 2.189333 8.170701 2.189333 16.773748 0 24.94445 l -19.166403 -5.135622 c 1.2878428 -4.8062954 1.2878428 -9.866912 0 -14.673206 l 19.166403 -5.135622 Z "/>
                <path class="typst-shape" fill="none" transform="matrix(1 0 0 1 80.57669291338583 43.19097637795276)" d="M 0 0m 11.76 0 v 9.996 h -11.76 v -9.996 h 11.76 Z "/>
                <g class="typst-group">
                    <g>
                        <g class="typst-group" transform="matrix(0.00000000000000006123233995736766 1 -1 0.00000000000000006123233995736766 92.3366929606299 43.190976330708665)">
                            <g>
                                <g class="typst-group">
                                    <g>
                                        <path class="typst-shape" fill="none" d="M 0 0h 9.996 v 11.76 h -9.996 v -11.76 Z "/>
                                        <g class="typst-group">
                                            <g>
                                                <g class="typst-group" transform="matrix(1 0 0 1 -0.000000047244094368909106 -0.000000047244094368909106)">
                                                    <g>
                                                        <g class="typst-text" transform="matrix(1 0 0 -1 0 11.76)">
                                                            <use xlink:href="#g17E98545AE1EFC29262808E6815CCFCC" x="0" y="0" fill="#ffffff" fill-rule="nonzero"/>
                                                        </g>
                                                    </g>
                                                </g>
                                            </g>
                                        </g>
                                    </g>
                                </g>
                            </g>
                        </g>
                    </g>
                </g>
                <path class="typst-shape" fill="#000000" fill-rule="nonzero" stroke="#ffffff" stroke-width="1" stroke-linecap="butt" stroke-linejoin="miter" stroke-miterlimit="4" transform="matrix(1 0 0 1 68.23294812812262 55.52557923125256)" d="M 0 0m 26.503006 5.135622 c -2.189333 8.170701 -6.490858 15.621159 -12.472226 21.602528 l -14.03078 -14.030781 c 3.518452 -3.5184517 6.04876 -7.901074 7.3366027 -12.707369 l 19.166403 5.135622 Z "/>
                <path class="typst-shape" fill="none" transform="matrix(1 0 0 1 74.13756166820711 60.74552794977464)" d="M 0 0m 14.384459 5.88 l -4.2 7.2746134 l -10.184459 -5.88 l 4.2 -7.2746134 l 10.184459 5.88 Z "/>
                <g class="typst-group">
                    <g>
                        <g class="typst-group" transform="matrix(-0.4999999999999998 0.8660254037844387 -0.8660254037844387 -0.4999999999999998 88.5220205048708 66.6255278915675)">
                            <g>
                                <g class="typst-group">
                                    <g>
                                        <path class="typst-shape" fill="none" d="M 0 0h 8.4 v 11.76 h -8.4 v -11.76 Z "/>
                                        <g class="typst-group">
                                            <g>
                                                <g class="typst-group" transform="matrix(1 0 0 1 -0.00000009448818873781821 -0.000000047244094368909106)">
                                                    <g>
                                                        <g class="typst-text" transform="matrix(1 0 0 -1 0 11.76)">
                                                            <use xlink:href="#g5F1743C54EBCA7846F6C758732230592" x="0" y="0" fill="#ffffff" fill-rule="nonzero"/>
                                                        </g>
                                                    </g>
                                                </g>
                                            </g>
                                        </g>
                                    </g>
                                </g>
                            </g>
                        </g>
                    </g>
                </g>
                <path class="typst-shape" fill="#000000" fill-rule="nonzero" stroke="#ffffff" stroke-width="1" stroke-linecap="butt" stroke-linejoin="miter" stroke-miterlimit="4" transform="matrix(1 0 0 1 55.525579231252564 68.23294812812262)" d="M 0 0m 26.73815 14.03078 c -5.981369 5.981368 -13.431827 10.282893 -21.602528 12.472226 l -5.135622 -19.166403 c 4.806295 -1.2878428 9.188917 -3.8181508 12.707369 -7.3366027 l 14.030781 14.03078 Z "/>
                <path class="typst-shape" fill="none" transform="matrix(1 0 0 1 60.58928439324484 74.0069398899422)" d="M 0 0m 13.4671 10.305702 l -7.5171003 4.34 l -5.95 -10.305702 l 7.5171003 -4.34 l 5.95 10.305702 Z "/>
                <g class="typst-group">
                    <g>
                        <g class="typst-group" transform="matrix(-0.8660254037844385 0.5000000000000003 -0.5000000000000003 -0.8660254037844385 74.0563850386954 84.31264218653769)">
                            <g>
                                <g class="typst-group">
                                    <g>
                                        <path class="typst-shape" fill="none" d="M 0 0h 8.68 v 11.9 h -8.68 v -11.9 Z "/>
                                        <g class="typst-group">
                                            <g>
                                                <g class="typst-group" transform="matrix(1 0 0 1 -0.00000012598425254559622 -0.00000006299212672038408)">
                                                    <g>
                                                        <g class="typst-text" transform="matrix(1 0 0 -1 0 11.76)">
                                                            <use xlink:href="#g128075E5DB8D259828B6B61DAEA720F" x="0" y="0" fill="#ffffff" fill-rule="nonzero"/>
                                                        </g>
                                                    </g>
                                                </g>
                                            </g>
                                        </g>
                                    </g>
                                </g>
                            </g>
                        </g>
                    </g>
                </g>
                <path class="typst-shape" fill="#000000" fill-rule="nonzero" stroke="#ffffff" stroke-width="1" stroke-linecap="butt" stroke-linejoin="miter" stroke-miterlimit="4" transform="matrix(1 0 0 1 35.71675152734311 75.56955098142241)" d="M 0 0m 24.94445 19.166403 c -8.170702 2.189333 -16.77375 2.189333 -24.94445 0 l 5.135622 -19.166403 c 4.8062944 1.2878428 9.866911 1.2878428 14.673206 0 l 5.135622 19.166403 Z "/>
                <path class="typst-shape" fill="none" transform="matrix(1 0 0 1 35.09397637795275 80.43669291338583)" d="M 0 0m 26.19 12.04 h -26.19 l -0.0000000000000062941777 -12.04 h 26.19 v 12.04 Z "/>
                <g class="typst-group">
                    <g>
                        <g class="typst-group" transform="matrix(-1 0.00000000000000012246467991473532 -0.00000000000000012246467991473532 -1 61.283976377952754 92.47669299212598)">
                            <g>
                                <g class="typst-group">
                                    <g>
                                        <path class="typst-shape" fill="none" d="M 0 0h 26.19 v 12.04 h -26.19 v -12.04 Z "/>
                                        <g class="typst-group">
                                            <g>
                                                <g class="typst-group" transform="matrix(1 0 0 1 0 -0.00000007874015728151517)">
                                                    <g>
                                                        <g class="typst-text" transform="matrix(1 0 0 -1 6 11.76)">
                                                            <use xlink:href="#gDF1DEED328F94DFF6A307145F40F36C1" x="0" y="0" fill="#ffffff" fill-rule="nonzero"/>
                                                        </g>
                                                        <g class="typst-text" transform="matrix(1 0 0 -1 12.19 11.76)">
                                                            <use xlink:href="#g8450F2DBE4EA6EFF4798A8FBAA1F8534" x="0" y="0" fill="#ffffff" fill-rule="nonzero"/>
                                                        </g>
                                                    </g>
                                                </g>
                                            </g>
                                        </g>
                                    </g>
                                </g>
                            </g>
                        </g>
                    </g>
                </g>
                <path class="typst-shape" fill="#000000" fill-rule="nonzero" stroke="#ffffff" stroke-width="1" stroke-linecap="butt" stroke-linejoin="miter" stroke-miterlimit="4" transform="matrix(1 0 0 1 14.11422440266401 68.23294812812262)" d="M 0 0m 21.602528 26.503006 c -8.170701 -2.189333 -15.62116 -6.490858 -21.602528 -12.472226 l 14.03078 -14.03078 c 3.5184526 3.518452 7.9010744 6.04876 12.70737 7.3366027 l -5.135622 19.166403 Z "/>
                <path class="typst-shape" fill="none" transform="matrix(1 0 0 1 14.0666137089385 69.24093988994221)" d="M 0 0m 24.027008 24.177702 l -24.027008 -13.872 l 5.95 -10.305702 l 24.027008 13.872 l -5.950001 10.305702 Z "/>
                <g class="typst-group">
                    <g>
                        <g class="typst-group" transform="matrix(-0.8660254037844388 -0.4999999999999997 0.4999999999999997 -0.8660254037844388 38.09362252095249 93.41864227315187)">
                            <g>
                                <g class="typst-group">
                                    <g>
                                        <path class="typst-shape" fill="none" d="M 0 0h 27.744 v 11.9 h -27.744 v -11.9 Z "/>
                                        <g class="typst-group">
                                            <g>
                                                <g class="typst-group" transform="matrix(1 0 0 1 -0.00000004724409615925301 -0.00000006299212672038408)">
                                                    <g>
                                                        <g class="typst-text" transform="matrix(1 0 0 -1 6 11.76)">
                                                            <use xlink:href="#g112710620D1B6DC0887308515FB9EFA6" x="0" y="0" fill="#ffffff" fill-rule="nonzero"/>
                                                        </g>
                                                        <g class="typst-text" transform="matrix(1 0 0 -1 13.743999999999998 11.76)">
                                                            <use xlink:href="#g8AE1F0850AE2214235F45E3E3A023CE" x="0" y="0" fill="#ffffff" fill-rule="nonzero"/>
                                                        </g>
                                                    </g>
                                                </g>
                                            </g>
                                        </g>
                                    </g>
                                </g>
                            </g>
                        </g>
                    </g>
                </g>
                <path class="typst-shape" fill="#000000" fill-rule="nonzero" stroke="#ffffff" stroke-width="1" stroke-linecap="butt" stroke-linejoin="miter" stroke-miterlimit="4" transform="matrix(1 0 0 1 1.6419995520543575 55.52557923125258)" d="M 0 0m 12.472225 26.73815 c -5.9813685 -5.981369 -10.282892 -13.431827 -12.472225 -21.602528 l 19.166403 -5.135622 c 1.2878418 4.806295 3.8181496 9.188917 7.336603 12.707369 l -14.030781 14.030781 Z "/>
                <path class="typst-shape" fill="none" transform="matrix(1 0 0 1 2.896310560928478 52.22521104349473)" d="M 0 0m 13.998 30.195248 l -13.998 -24.245247 l 10.305702 -5.95 l 13.997999 24.245247 l -10.305701 5.950001 Z "/>
                <g class="typst-group">
                    <g>
                        <g class="typst-group" transform="matrix(-0.5000000000000004 -0.8660254037844384 0.8660254037844384 -0.5000000000000004 16.894310529997757 82.42045832025453)">
                            <g>
                                <g class="typst-group">
                                    <g>
                                        <path class="typst-shape" fill="none" d="M 0 0h 27.996 v 11.9 h -27.996 v -11.9 Z "/>
                                        <g class="typst-group">
                                            <g>
                                                <g class="typst-group" transform="matrix(1 0 0 1 -0.000000047244094368909106 -0.00000006299212672038408)">
                                                    <g>
                                                        <g class="typst-text" transform="matrix(1 0 0 -1 6 11.76)">
                                                            <use xlink:href="#g17E98545AE1EFC29262808E6815CCFCC" x="0" y="0" fill="#ffffff" fill-rule="nonzero"/>
                                                        </g>
                                                        <g class="typst-text" transform="matrix(1 0 0 -1 13.996 11.76)">
                                                            <use xlink:href="#g8AE1F0850AE2214235F45E3E3A023CE" x="0" y="0" fill="#ffffff" fill-rule="nonzero"/>
                                                        </g>
                                                    </g>
                                                </g>
                                            </g>
                                        </g>
                                    </g>
                                </g>
                            </g>
                        </g>
                    </g>
                </g>
                <path class="typst-shape" fill="#000000" fill-rule="nonzero" stroke="#ffffff" stroke-width="1" stroke-linecap="butt" stroke-linejoin="miter" stroke-miterlimit="4" transform="matrix(1 0 0 1 0 35.716751527343135)" d="M 0 0m 1.6419996 24.94445 c -2.1893327 -8.170702 -2.1893327 -16.77375 0 -24.94445 l 19.1664 5.135622 c -1.2878418 4.8062944 -1.2878418 9.866911 0 14.673206 l -19.1664 5.135622 Z "/>
                <path class="typst-shape" fill="none" transform="matrix(1 0 0 1 3.9712598425196814 34.98897637795275)" d="M 0 0m 0 26.4 v -26.4 l 11.9 -0.0000000000000062941777 v 26.4 h -11.9 Z "/>
                <g class="typst-group">
                    <g>
                        <g class="typst-group" transform="matrix(-0.00000000000000018369701987210297 -1 1 -0.00000000000000018369701987210297 3.9712597795275566 61.38897647244096)">
                            <g>
                                <g class="typst-group">
                                    <g>
                                        <path class="typst-shape" fill="none" d="M 0 0h 26.4 v 11.9 h -26.4 v -11.9 Z "/>
                                        <g class="typst-group">
                                            <g>
                                                <g class="typst-group" transform="matrix(1 0 0 1 -0.00000009448818873781821 -0.00000006299212672038408)">
                                                    <g>
                                                        <g class="typst-text" transform="matrix(1 0 0 -1 6 11.76)">
                                                            <use xlink:href="#g5F1743C54EBCA7846F6C758732230592" x="0" y="0" fill="#ffffff" fill-rule="nonzero"/>
                                                        </g>
                                                        <g class="typst-text" transform="matrix(1 0 0 -1 12.4 11.76)">
                                                            <use xlink:href="#g8AE1F0850AE2214235F45E3E3A023CE" x="0" y="0" fill="#ffffff" fill-rule="nonzero"/>
                                                        </g>
                                                    </g>
                                                </g>
                                            </g>
                                        </g>
                                    </g>
                                </g>
                            </g>
                        </g>
                    </g>
                </g>
                <path class="typst-shape" fill="#000000" fill-rule="nonzero" stroke="#ffffff" stroke-width="1" stroke-linecap="butt" stroke-linejoin="miter" stroke-miterlimit="4" transform="matrix(1 0 0 1 1.6419995520543325 14.11422440266405)" d="M 0 0m 0 21.602528 c 2.1893327 -8.170701 6.4908566 -15.62116 12.472225 -21.602528 l 14.030781 14.03078 c -3.5184536 3.5184526 -6.0487614 7.9010744 -7.336603 12.70737 l -19.166403 -5.135622 Z "/>
                <path class="typst-shape" fill="none" transform="matrix(1 0 0 1 3.2253105609284707 14.527339223751833)" d="M 0 0m 0 23.105558 l 13.34 -23.105558 l 10.305702 5.95 l -13.34 23.105556 l -10.305702 -5.949999 Z "/>
                <g class="typst-group">
                    <g>
                        <g class="typst-group" transform="matrix(0.49999999999999933 -0.866025403784439 0.866025403784439 0.49999999999999933 3.2253104433835658 37.63289707433016)">
                            <g>
                                <g class="typst-group">
                                    <g>
                                        <path class="typst-shape" fill="none" d="M 0 0h 26.68 v 11.9 h -26.68 v -11.9 Z "/>
                                        <g class="typst-group">
                                            <g>
                                                <g class="typst-group" transform="matrix(1 0 0 1 -0.00000012598425344076817 -0.00000006299212672038408)">
                                                    <g>
                                                        <g class="typst-text" transform="matrix(1 0 0 -1 6 11.76)">
                                                            <use xlink:href="#g128075E5DB8D259828B6B61DAEA720F" x="0" y="0" fill="#ffffff" fill-rule="nonzero"/>
                                                        </g>
                                                        <g class="typst-text" transform="matrix(1 0 0 -1 12.68 11.76)">
                                                            <use xlink:href="#g8AE1F0850AE2214235F45E3E3A023CE" x="0" y="0" fill="#ffffff" fill-rule="nonzero"/>
                                                        </g>
                                                    </g>
                                                </g>
                                            </g>
                                        </g>
                                    </g>
                                </g>
                            </g>
                        </g>
                    </g>
                </g>
                <path class="typst-shape" fill="#000000" fill-rule="nonzero" stroke="#ffffff" stroke-width="1" stroke-linecap="butt" stroke-linejoin="miter" stroke-miterlimit="4" transform="matrix(1 0 0 1 14.114224402663993 1.6419995520543513)" d="M 0 0m 0 12.472225 c 5.981368 -5.9813685 13.431827 -10.282892 21.602528 -12.472225 l 5.135622 19.166403 c -4.8062954 1.2878418 -9.188917 3.8181496 -12.70737 7.336603 l -14.03078 -14.030781 Z "/>
                <path class="typst-shape" fill="none" transform="matrix(1 0 0 1 22.56874408173892 7.908432339193403)" d="M 0 0m 0 4.095 l 7.092748 -4.095 l 5.8799996 10.184459 l -7.0927477 4.0950003 l -5.88 -10.18446 Z "/>
                <g class="typst-group">
                    <g>
                        <g class="typst-group" transform="matrix(0.8660254037844384 -0.5000000000000004 0.5000000000000004 0.8660254037844384 22.56874405811688 12.003432298278819)">
                            <g>
                                <g class="typst-group">
                                    <g>
                                        <path class="typst-shape" fill="none" d="M 0 0h 8.19 v 11.76 h -8.19 v -11.76 Z "/>
                                        <g class="typst-group">
                                            <g>
                                                <g class="typst-group" transform="matrix(1 0 0 1 0 -0.000000047244094368909106)">
                                                    <g>
                                                        <g class="typst-text" transform="matrix(1 0 0 -1 0 11.76)">
                                                            <use xlink:href="#gDF1DEED328F94DFF6A307145F40F36C1" x="0" y="0" fill="#ffffff" fill-rule="nonzero"/>
                                                        </g>
                                                    </g>
                                                </g>
                                            </g>
                                        </g>
                                    </g>
                                </g>
                            </g>
                        </g>
                    </g>
                </g>
                <path class="typst-shape" fill="none" d="M 0 0m 48.188976 0 c -26.589907 0 -48.188976 21.59907 -48.188976 48.188976 c 0 26.589909 21.59907 48.188976 48.188976 48.188976 c 26.589909 0 48.188976 -21.599068 48.188976 -48.188976 c 0 -26.589907 -21.599068 -48.188976 -48.188976 -48.188976 Z "/>
                <path class="typst-shape" fill="none" transform="matrix(1 0 0 1 19.84251968503937 19.84251968503937)" d="M 0 0m 28.346457 0 c -15.641121 0 -28.346457 12.705336 -28.346457 28.346457 c 0 15.641123 12.705336 28.346457 28.346457 28.346457 c 15.641123 0 28.346457 -12.705334 28.346457 -28.346457 c 0 -15.641121 -12.705334 -28.346457 -28.346457 -28.346457 Z "/>
            </g>
        </g>
    </g>
    <defs id="glyph">
        <symbol id="gBF90925A679915BCE972B3DE4230CF63" overflow="visible">
            <path d="M 0 0m 5.558 8.778 q -1.0499997 0 -1.694 -0.9869995 q -0.64400005 -0.987 -0.64400005 -2.6810002 q 0 -1.6800001 0.67200017 -2.674 q 0.67199993 -0.9940001 1.6659999 -0.9940001 q 0.86800003 0 1.7920003 0.7700001 l 0.4619999 -1.4420002 q -1.0360003 -0.896 -2.3660002 -0.91 q -1.694 0 -2.723 1.421 q -1.029 1.4210001 -1.029 3.829 q 0 2.422 1.0080001 3.836 q 1.0079999 1.4140005 2.744 1.4140005 q 1.3299999 0 2.3660002 -0.90999985 l -0.4619999 -1.4420004 q -0.92400026 0.7699995 -1.7920003 0.7699995 Z "/>
        </symbol>
        <symbol id="g9DBEDAE82679669F929400B990C00743" overflow="visible">
            <path d="M 0 0m 5.782 8.806001 q -1.1339998 0 -1.806 -0.99400043 q -0.67199993 -0.99399996 -0.67199993 -2.7020001 q 0 -1.708 0.70000005 -2.7020001 q 0.6999998 -0.99399996 1.862 -0.99399996 q 0.5879998 0 0.99399996 0.27999997 v 2.9400003 h -1.974 v 1.4979997 h 3.416 v -5.5299997 q -1.204 -0.742 -2.5759997 -0.742 q -1.8060002 0 -2.8700001 1.421 q -1.0640001 1.4210001 -1.0640001 3.829 q 0 2.422 1.029 3.836 q 1.029 1.4140005 2.835 1.4140005 q 1.3439999 0 2.394 -0.8959999 l -0.44799995 -1.4140005 q -0.95200014 0.7560005 -1.8200002 0.7560005 Z "/>
        </symbol>
        <symbol id="g112710620D1B6DC0887308515FB9EFA6" overflow="visible">
            <path d="M 0 0m 8.106 5.25 q 0 -2.618 -0.9869995 -4.0039997 q -0.98700047 -1.386 -2.821 -1.386 q -1.0640001 0 -2.0300002 0.21000001 v 10.080001 q 0.9519999 0.22399998 2.0300002 0.21000004 q 1.8199997 0 2.8139997 -1.3369999 q 0.99399996 -1.3370004 0.99399996 -3.7730007 Z m -1.428 0 q 0 3.5419998 -2.31 3.5419998 q -0.3499999 0 -0.602 -0.083999634 v -7.196 q 0.2520001 -0.09800005 0.602 -0.08399999 q 1.1480002 0 1.7290001 0.9380001 q 0.58099985 0.93799996 0.58099985 2.8839998 Z "/>
        </symbol>
        <symbol id="g17E98545AE1EFC29262808E6815CCFCC" overflow="visible">
            <path d="M 0 0m 1.7080001 0 l 2.52 10.22 h 1.5539999 l 2.52 -10.22 h -1.5959997 l -0.5180001 2.464 h -2.394 l -0.53200006 -2.464 h -1.554 Z m 2.408 3.9620001 h 1.7220001 l -0.8540001 4.34 l -0.86800003 -4.34 Z "/>
        </symbol>
        <symbol id="g5F1743C54EBCA7846F6C758732230592" overflow="visible">
            <path d="M 0 0m 3.5 8.6380005 v -2.5060005 h 2.8560004 v -1.4979997 h -2.8560004 v -3.0520003 h 3.066 v -1.582 h -4.564 v 10.22 h 4.564 v -1.5819998 h -3.066 Z "/>
        </symbol>
        <symbol id="g128075E5DB8D259828B6B61DAEA720F" overflow="visible">
            <path d="M 0 0m 3.598 6.104 h 0.27999997 q 0.86800027 0 1.267 0.35699987 q 0.39900017 0.35700035 0.39900017 1.0570002 q 0 0.6720004 -0.3080001 0.99399996 q -0.3080001 0.3220005 -1.0219998 0.3220005 q -0.36400008 0 -0.6160002 -0.08400059 v -2.646 Z m 0 -1.4559999 v -3.1780002 q 0.29400015 -0.09799993 0.67199993 -0.08399999 q 0.77 0 1.1270003 0.42700005 q 0.35699987 0.42699993 0.35699987 1.3089999 q 0 0.7980001 -0.40600014 1.162 q -0.40599966 0.36400032 -1.3999999 0.36400032 h -0.35000014 Z m 3.612 -1.7080002 q 0 -1.54 -0.7279997 -2.31 q -0.72800016 -0.77 -2.2400002 -0.77 q -1.106 0 -2.142 0.21000001 v 10.080001 q 0.96599984 0.22399998 2.044 0.21000004 q 2.7860003 0 2.7860003 -2.5620003 q 0 -0.86800003 -0.4130001 -1.4910002 q -0.4130001 -0.62300014 -1.0430002 -0.8049998 v -0.028000355 q 0.7840004 -0.1539998 1.2600002 -0.84699965 q 0.47599983 -0.6930003 0.47599983 -1.6870003 Z "/>
        </symbol>
        <symbol id="gDF1DEED328F94DFF6A307145F40F36C1" overflow="visible">
            <path d="M 0 0m 1.988 10.22 h 4.452 v -1.5819998 h -2.954 v -2.6880002 h 2.758 v -1.5120001 h -2.758 v -4.438 h -1.498 v 10.22 Z "/>
        </symbol>
        <symbol id="g8450F2DBE4EA6EFF4798A8FBAA1F8534" overflow="visible">
            <path d="M 0 0m 6.342 8.624001 l 1.1480002 0.40600014 v -1.7780004 l -1.1480002 -0.40600014 v -2.184 l 1.1480002 0.40600014 v -1.7780001 l -1.1480002 -0.40600014 v -2.604 h -0.7419996 v 2.38 l -1.4420004 -0.55999994 v -2.38 h -0.74199986 v 2.1560001 l -1.148 -0.40600002 v 1.7780001 l 1.148 0.4059999 v 2.1840003 l -1.148 -0.40600014 v 1.7779999 l 1.148 0.40600014 v 2.3240004 h 0.74199986 v -2.1000004 l 1.4420004 0.5600004 v 2.0999994 h 0.7419996 v -1.8759995 Z m -0.7419996 -2.0020003 l -1.4420004 -0.5739999 v -2.1700003 l 1.4420004 0.5740001 v 2.17 Z "/>
        </symbol>
        <symbol id="g8AE1F0850AE2214235F45E3E3A023CE" overflow="visible">
            <path d="M 0 0m 2.674 10.5 h 0.7980001 v -4.284 q 0.8959999 1.0500002 1.9879999 1.0640001 q 0.8120003 0 1.2460003 -0.58099985 q 0.43400002 -0.5810003 0.43400002 -1.5890002 q 0 -1.792 -1.1340003 -3.157 q -1.1339998 -1.365 -3.332 -2.0930002 v 10.64 Z m 0.7980001 -5.264 v -4.144 q 0.95200014 0.53200006 1.5120001 1.477 q 0.55999994 0.9450002 0.55999994 2.149 q 0 1.3720002 -0.7839999 1.3720002 q -0.64400005 0 -1.2880001 -0.8540001 Z "/>
        </symbol>
    </defs>
</svg>
